<?xml version="1.0" standalone="no"?><!DOCTYPE svg PUBLIC "-//W3C//DTD SVG 1.1//EN" "http://www.w3.org/Graphics/SVG/1.1/DTD/svg11.dtd"><svg t="1564039820431" class="icon" viewBox="0 0 1024 1024" version="1.1" xmlns="http://www.w3.org/2000/svg" p-id="9194" xmlns:xlink="http://www.w3.org/1999/xlink" width="200" height="200"><defs><style type="text/css"></style></defs><path d="M1016.288 976.928l-284.064-284.064a413.184 413.184 0 0 0 106.496-277.056C838.72 186.336 652.672 0.352 423.2 0.352 193.792 0.352 7.808 186.336 7.712 415.808c0.096 229.472 186.08 415.488 415.488 415.488 98.464 0 188.736-34.368 259.968-91.616l283.84 283.936 49.28-46.688zM72.064 416.384c0.416-194.24 157.44-351.36 351.648-351.712a352.192 352.192 0 0 1 351.68 351.712A352 352 0 0 1 423.712 768c-194.208-0.32-351.232-157.376-351.648-351.616z" p-id="9195" fill="#e6e6e6"></path><path d="M622.688 174.656H217.44c-19.456 0-35.2 15.744-35.2 35.136v405.344c0 19.424 15.712 35.136 35.2 35.136h405.248c19.424 0 35.168-15.68 35.168-35.136V209.792a35.2 35.2 0 0 0-35.168-35.136z m7.616 440.096a7.904 7.904 0 0 1-7.968 7.936H217.824a7.904 7.904 0 0 1-8-7.936V210.208c0-4.416 3.52-8 8-8h404.544c4.416 0 7.968 3.552 7.968 8v404.544z m0 0" p-id="9196" fill="#e6e6e6"></path><path d="M600.96 268.128a18.016 18.016 0 0 0-25.472-25.44l-23.712 23.68 25.472 25.44 23.712-23.68z m-217.728 166.816l-11.264 37.728 36.672-12.288 17.536-17.536-25.44-25.44-17.504 17.536z m0 0" p-id="9197" fill="#e6e6e6"></path><path d="M399.584 418.528l139.136-139.168 25.472 25.472-139.168 139.136-25.44-25.44z m-150.4 92.992h250.08v27.52H249.184v-27.52z m0-81.312h113.12v27.584H249.184v-27.584z m0-82.24h158.912v27.52H249.184v-27.52z m0-69.92h250.08v27.552H249.184v-27.552z m0 0" p-id="9198" fill="#e6e6e6"></path></svg>