<?xml version="1.0" standalone="no"?><!DOCTYPE svg PUBLIC "-//W3C//DTD SVG 1.1//EN" "http://www.w3.org/Graphics/SVG/1.1/DTD/svg11.dtd"><svg t="1564625314091" class="icon" viewBox="0 0 1024 1024" version="1.1" xmlns="http://www.w3.org/2000/svg" p-id="1901" xmlns:xlink="http://www.w3.org/1999/xlink" width="200" height="200"><defs><style type="text/css"></style></defs><path d="M919.45457778 575.47591111H460.50097778V116.52337778c-5.75893333 0.37866667-11.4848 0.87786667-17.17866667 1.48053333a28.64106667 28.64106667 0 0 0-11.5648-2.4288 28.624 28.624 0 0 0-18.40106666 6.6656C211.42577778 158.09671111 58.08711111 334.50417778 58.08711111 546.73244445c0 238.1216 193.03573333 431.1584 431.15733334 431.1584 212.22826667 0 388.6368-153.33973333 424.49386666-355.2704a28.62613333 28.62613333 0 0 0 6.66453334-18.4c0-4.11413333-0.8704-8.02346667-2.42773334-11.56373334a433.70026667 433.70026667 0 0 0 1.47946667-17.1808zM489.24444445 920.40284445c-206.37226667 0-373.6704-167.29813333-373.6704-373.6704 0-176.68906667 122.64426667-324.71146667 287.43893333-363.64373334V604.22044445c0 15.8752 12.86826667 28.74346667 28.74346667 28.74346666h421.13173333C813.95591111 797.75857778 665.93351111 920.40284445 489.24444445 920.40284445z m488.64106666-431.168c0-6.87893333-2.74773333-12.94293333-6.7776-17.88906667-32.00746667-205.61386667-191.4528-368.78826667-395.63733333-405.20853333v20.6848c0-15.87413333-12.87146667-28.74453333-28.74346667-28.74453334-15.87626667 0-28.74346667 12.8704-28.74346666 28.74453334v402.41386666c0 15.87626667 12.8672 28.74453333 28.74346666 28.74453334h428.57066667c-0.59946667-4.9792-0.8992-10.03733333-1.3536-15.06346667 2.28906667-4.1248 3.94133333-8.62933333 3.94133333-13.68213333z m-402.41493333-28.7424V124.22471111c168.83626667 34.27626667 301.13066667 167.47626667 335.51893333 336.26773334H575.47057778z" p-id="1902" fill="#ffffff"></path></svg>