<?xml version="1.0" standalone="no"?><!DOCTYPE svg PUBLIC "-//W3C//DTD SVG 1.1//EN" "http://www.w3.org/Graphics/SVG/1.1/DTD/svg11.dtd"><svg t="1556877671807" class="icon" style="" viewBox="0 0 1024 1024" version="1.1" xmlns="http://www.w3.org/2000/svg" p-id="11798" xmlns:xlink="http://www.w3.org/1999/xlink" width="200" height="200"><defs><style type="text/css"></style></defs><path d="M390.84410917 238.83527768c-0.80675482-6.63436354-8.95179213-9.45293604-13.68151902-4.72465754l-43.94279123 43.94351542L198.76041961 143.69904053c-3.11766565-3.11766565-8.243528-3.11766565-11.36191785 0L144.75491893 186.23833906c-3.11766565 3.11911404-3.11766565 8.25004578 0 11.36264206L279.21284986 332.05891204l-44.14846301 44.1499114c-4.72465754 4.72320914-1.90970599 12.87114322 4.72900271 13.67572546l161.1076355 19.008708c5.12658655 0.60470403 9.55070257-3.72236968 8.94599854-8.95179212l-19.00291443-161.1061871z m10.15468241 375.31769872l-161.20612622 19.00291443c-6.63870871 0.80385804-9.45366025 8.95179213-4.72900271 13.68079483l44.14846301 44.14556622L144.75491893 825.2388562c-3.11766565 3.11838984-3.11766565 8.24497641 0 11.36264204l42.64285863 42.53785015c3.11911404 3.11983824 8.24497641 3.11983824 11.36191785 0L333.21979892 744.78570176l43.94279123 43.94786059c4.72972691 4.72465754 12.8747642 1.91115439 13.68151902-4.72755432l19.00219024-161.0040754c0.60470403-5.13238013-3.7158519-9.45293604-8.84750783-8.84895624z m223.05757105-205.36255538l161.20612621-19.00363863c6.63943291-0.80530643 9.45293604-8.95034372 4.72900273-13.68079484l-44.14991142-44.04707551 134.45865513-134.35509503c3.11766565-3.11766565 3.11766565-8.243528 0-11.36264205l-42.64285864-42.53929853c-3.11838984-3.11766565-8.24497641-3.11766565-11.36264205 0l-134.45865511 134.25153493-43.94423961-43.94351541c-4.72827852-4.72827852-12.8747642-1.90970599-13.68079484 4.72465753l-19.00291443 161.00914477c-0.60325563 5.22942245 3.7173003 9.55215097 8.84823203 8.94672276zM745.84158015 690.88376116l44.14991142-44.14991139c4.72320914-4.72393334 1.9104302-12.87041902-4.72900273-13.67572547l-161.10763549-19.008708c-5.12658655-0.60397982-9.55070257 3.72092127-8.94672275 8.95179212l19.00291443 161.10763551c0.80530643 6.63363934 8.95179213 9.45293604 13.68079483 4.72320914l43.94423961-43.94351543 134.45865512 134.35364664c3.11838984 3.11983824 8.24497641 3.11983824 11.36264206 0l42.64285863-42.53785014c3.11766565-3.11838984 3.11766565-8.25004578 0-11.36264205L745.84158015 690.88376116z m0 0" p-id="11799"></path></svg>