<?xml version="1.0" standalone="no"?><!DOCTYPE svg PUBLIC "-//W3C//DTD SVG 1.1//EN" "http://www.w3.org/Graphics/SVG/1.1/DTD/svg11.dtd"><svg t="1556877545651" class="icon" style="" viewBox="0 0 1024 1024" version="1.1" xmlns="http://www.w3.org/2000/svg" p-id="7253" xmlns:xlink="http://www.w3.org/1999/xlink" width="200" height="200"><defs><style type="text/css"></style></defs><path d="M830.4250001 109.3000001c45.675 0 84.2749998 25.99999981 84.2749998 56.77499971V284.50000039H962V166.0749998c0-29.1499998-14.60000041-56.0750001-41.1249999-75.82499999C896.45000029 72.02499981 864.32500038 62 830.4250001 62H739.49999961v47.3000001h90.92500049z m0 0M109.3000001 166.0749998c0-30.77499991 38.5999998-56.77499971 84.2749998-56.7749997H284.50000039V62H193.5749999c-33.87499981 0-65.99999971 10.0249998-90.45 28.24999978C76.60000039 109.99999971 62 136.94999961 62 166.0749998V284.50000039h47.3000001V166.0749998z m0 0M914.6999999 857.9250002c0 30.77499991-38.5999998 56.77499971-84.2749998 56.7749997H739.49999961V962h90.92500049c33.87499981 0 66.0250002-10.0249998 90.45-28.24999978C947.39999961 914.00000029 962 887.075 962 857.9250002v-118.4000001h-47.3000001v118.4000001z m0 0M193.5749999 914.6999999c-45.69999962 0-84.2749998-25.99999981-84.2749998-56.77499971v-118.40000009H62v118.40000009c0 29.1499998 14.60000041 56.0750001 41.1249999 75.825 24.45000029 18.225 56.54999971 28.2499998 90.45 28.24999981H284.50000039v-47.3000001H193.5749999z m0 0M659.62499961 730.17500029h-295.24999922c-18.42500039 0-36-5.55000029-49.5-15.60000058-15.37499971-11.45000039-24.17500019-27.97499971-24.17500019-45.32499932V348.49999971c0-17.34999961 8.79999961-33.87499981 24.17500019-45.32499932 13.50000001-10.05000029 31.1000001-15.6250002 49.5-15.6250002h295.24999922c18.3999999 0 35.97500039 5.55000029 49.5 15.6250002 15.3500001 11.45000039 24.14999969 27.97499971 24.15000058 45.32499932v320.75000068c0 17.34999961-8.79999961 33.87499981-24.15000058 45.32499932-13.50000001 10.05000029-31.07499961 15.59999971-49.5 15.60000058z m-295.24999922-395.325c-15.8749998 0-26.39999971 8.20000019-26.40000059 13.62499981v320.7499998c0 5.42499961 10.5249999 13.65000029 26.40000059 13.6500003h295.24999922c15.85000021 0 26.3750001-8.2249998 26.3750001-13.6500003v-320.7499998c0-5.42499961-10.5249999-13.65000029-26.3750001-13.65000029l-295.24999922 0.02500048z m0 0" p-id="7254"></path></svg>