<?xml version="1.0" standalone="no"?><!DOCTYPE svg PUBLIC "-//W3C//DTD SVG 1.1//EN" "http://www.w3.org/Graphics/SVG/1.1/DTD/svg11.dtd"><svg t="1558420822590" class="icon" style="" viewBox="0 0 1024 1024" version="1.1" xmlns="http://www.w3.org/2000/svg" p-id="3921" xmlns:xlink="http://www.w3.org/1999/xlink" width="200" height="200"><defs><style type="text/css"></style></defs><path d="M512 512c-121.228387 0-222.373161-87.535484-243.612903-202.685935a55.064774 55.064774 0 1 0-55.064774 4.822709c23.84929 143.326968 148.678194 252.961032 298.677677 252.961032 149.999484 0 274.828387-109.634065 298.677677-252.961032a55.031742 55.031742 0 0 0-23.386838-104.910451 55.064774 55.064774 0 0 0-31.644904 100.087742C734.406194 424.497548 633.261419 512 512 512zM897.387355 16.516129h-223.66142l0.066065 0.231226a27.515871 27.515871 0 0 0 0 54.56929l-0.066065 0.231226h223.694452a55.163871 55.163871 0 0 1 55.064774 55.064774v770.77471a55.163871 55.163871 0 0 1-55.064774 55.064774H126.67871a55.163871 55.163871 0 0 1-55.064775-55.064774V126.612645a55.163871 55.163871 0 0 1 55.064775-55.064774h196.145548l-0.066064-0.231226a27.515871 27.515871 0 0 0 0-54.56929L322.824258 16.516129h-196.211613A110.228645 110.228645 0 0 0 16.582194 126.612645v770.77471A110.228645 110.228645 0 0 0 126.67871 1007.483871h770.741677a110.228645 110.228645 0 0 0 110.096516-110.096516V126.612645A110.228645 110.228645 0 0 0 897.420387 16.516129z" p-id="3922" fill="#ffffff"></path></svg>