<?xml version="1.0" standalone="no"?><!DOCTYPE svg PUBLIC "-//W3C//DTD SVG 1.1//EN" "http://www.w3.org/Graphics/SVG/1.1/DTD/svg11.dtd"><svg t="1556877433480" class="icon" style="" viewBox="0 0 1024 1024" version="1.1" xmlns="http://www.w3.org/2000/svg" p-id="5201" xmlns:xlink="http://www.w3.org/1999/xlink" width="200" height="200"><defs><style type="text/css"></style></defs><path d="M512 1024C228.693333 1024 0 793.6 0 512S228.693333 0 512 0s512 230.4 512 512-230.4 512-512 512z m0-976.213333C256 47.786667 47.786667 256 47.786667 512S256 974.506667 512 974.506667 974.506667 768 974.506667 512 766.293333 47.786667 512 47.786667z" p-id="5202"></path><path d="M711.68 385.706667c0 8.533333-6.826667 15.36-15.36 15.36s-15.36-6.826667-15.36-15.36c0-32.426667-32.426667-32.426667-32.426667-32.426667h-76.8c-6.826667 0-27.306667 3.413333-29.013333 27.306667v288.426666c1.706667 23.893333 22.186667 27.306667 29.013333 27.306667h18.773334c8.533333 0 15.36 6.826667 15.36 15.36s-6.826667 15.36-15.36 15.36h-157.013334c-8.533333 0-15.36-6.826667-15.36-15.36s6.826667-15.36 15.36-15.36h18.773334c6.826667 0 27.306667-3.413333 29.013333-27.306667V382.293333c-1.706667-23.893333-22.186667-27.306667-29.013333-27.306666H375.466667s-32.426667 0-32.426667 32.426666c0 8.533333-6.826667 15.36-15.36 15.36s-15.36-6.826667-15.36-15.36v-75.093333c0-8.533333 6.826667-15.36 15.36-15.36s15.36 6.826667 15.36 15.36c0 0 0 11.946667 11.946667 11.946667H665.6c11.946667 0 11.946667-11.946667 11.946667-11.946667 0-8.533333 6.826667-15.36 15.36-15.36s15.36 6.826667 15.36 15.36v27.306667l3.413333 46.08z" p-id="5203"></path></svg>