<?xml version="1.0" standalone="no"?><!DOCTYPE svg PUBLIC "-//W3C//DTD SVG 1.1//EN" "http://www.w3.org/Graphics/SVG/1.1/DTD/svg11.dtd"><svg t="1564039951487" class="icon" viewBox="0 0 1024 1024" version="1.1" xmlns="http://www.w3.org/2000/svg" p-id="11770" xmlns:xlink="http://www.w3.org/1999/xlink" width="200" height="200"><defs><style type="text/css"></style></defs><path d="M128.50996 700.685259q0 26.517928 18.358566 45.386454t44.876494 18.868526l253.960159 0 0 127.49004-317.195219 0q-26.517928 0-49.466135-9.689243t-40.286853-27.027888-27.537849-40.796813-10.199203-49.976096l0-637.450199q0-26.517928 10.199203-49.466135t27.537849-40.286853 40.286853-27.537849 49.466135-10.199203l764.940239 0q26.517928 0 49.466135 10.199203t40.286853 27.537849 27.537849 40.286853 10.199203 49.466135l0 188.685259-127.49004 4.079681 0-2.039841q0-26.517928-18.868526-44.876494t-45.386454-18.358566l-637.450199 0q-26.517928 0-44.876494 18.358566t-18.358566 44.876494l0 382.47012zM733.322709 315.155378q60.175299 0 112.701195 22.948207t91.792829 62.215139 62.215139 92.302789 22.948207 113.211155-22.948207 112.701195-62.215139 91.282869-91.792829 61.705179-112.701195 22.948207-112.701195-22.948207-91.792829-61.705179-62.215139-91.282869-22.948207-112.701195 22.948207-113.211155 62.215139-92.302789 91.792829-62.215139 112.701195-22.948207zM804.717131 573.195219l89.752988-84.653386-44.876494-46.916335-100.972112 97.912351 32.63745 33.657371-107.091633 0 32.63745-41.816733-93.832669-91.792829-38.756972 50.996016 85.673307 82.613546-85.673307 0 0 64.25498 127.49004 0 0 63.23506-127.49004 0 0 64.25498 127.49004 0 0 63.23506 64.25498 0 0-63.23506 127.49004 0 0-64.25498-127.49004 0 0-63.23506 127.49004 0 0-64.25498-88.733068 0z" p-id="11771" fill="#e6e6e6"></path></svg>