<?xml version="1.0" standalone="no"?><!DOCTYPE svg PUBLIC "-//W3C//DTD SVG 1.1//EN" "http://www.w3.org/Graphics/SVG/1.1/DTD/svg11.dtd"><svg t="1556888725271" class="icon" style="" viewBox="0 0 1024 1024" version="1.1" xmlns="http://www.w3.org/2000/svg" p-id="1103" xmlns:xlink="http://www.w3.org/1999/xlink" width="200" height="200"><defs><style type="text/css"></style></defs><path d="M582.1 272.9H441.9c-32.4 0-58.7 26.3-58.7 58.7V440h-81.1v311.2h419.6V439.9h-81.1V331.5c0.1-32.4-26.1-58.6-58.5-58.6z m-140.2 58.6H582v105.1H441.9V331.5z m221.2 167.1v193.9H360.9V498.6h302.2z" p-id="1104"></path><path d="M942.3 574l81.7-141h-38.9C948.4 187.7 743.2 0 495.5 0 221.8 0 0 229.2 0 512s221.8 512 495.5 512c136.1 0 259.4-56.7 348.9-148.5l11.6-10.8c14.6-13.5 15.4-36.3 1.9-50.9-13.5-14.6-36.3-15.4-50.9-1.9l-47.9 45.4 0.1 0.1c-29.9 24.4-62.7 44.6-98 60-52.4 23-108.2 34.6-165.7 34.6s-113.3-11.6-165.7-34.5c-50.7-22.2-96.2-53.9-135.4-94.3-39.1-40.4-69.8-87.5-91.3-139.9C80.9 629 69.7 571.4 69.7 512s11.2-117 33.4-171.2c21.4-52.4 52.2-99.4 91.3-139.9 39.1-40.4 84.7-72.2 135.4-94.3C382.2 83.6 438 72 495.5 72s113.3 11.6 165.7 34.5c50.7 22.2 96.2 53.9 135.4 94.3 39.1 40.4 69.8 87.5 91.3 139.9 12.2 29.8 21.1 60.6 26.6 92.2h-53.9L942.3 574z" p-id="1105"></path></svg>