<?xml version="1.0" standalone="no"?><!DOCTYPE svg PUBLIC "-//W3C//DTD SVG 1.1//EN" "http://www.w3.org/Graphics/SVG/1.1/DTD/svg11.dtd"><svg t="1559032547205" class="icon" style="" viewBox="0 0 1024 1024" version="1.1" xmlns="http://www.w3.org/2000/svg" p-id="2477" xmlns:xlink="http://www.w3.org/1999/xlink" width="200" height="200"><defs><style type="text/css"></style></defs><path d="M818.56512 118.52288a17.2032 17.2032 0 0 1 17.19296 17.19296v752.56832a17.21344 17.21344 0 0 1-11.57632 16.24576l-297.63072-139.07456-14.55104-6.80448-14.55616 6.80448-297.63072 139.07456a17.21856 17.21856 0 0 1-11.5712-16.24576V135.71584a17.20832 17.20832 0 0 1 17.18784-17.19296h613.13536m0-34.3808H205.42976c-28.48256 0-51.57376 23.0912-51.57376 51.57376v752.56832c0 28.48256 23.0912 51.56864 51.57376 51.56864L512 796.60032l306.56512 143.25248c28.48256 0 51.57376-23.0912 51.57376-51.56864V135.71584c0-28.48256-23.0912-51.57376-51.57376-51.57376z" p-id="2478"></path><path d="M644.58752 637.36832c-2.73408 0-5.4784-0.65536-7.99744-1.9712L512 569.89696l-124.58496 65.50528a17.2032 17.2032 0 0 1-24.94464-18.1248l23.79264-138.73152-100.79232-98.2528a17.18784 17.18784 0 0 1 9.5232-29.32736l139.29472-20.23936 62.29504-126.22336a17.19296 17.19296 0 0 1 30.83776 0l62.28992 126.22336 139.29472 20.23936a17.18784 17.18784 0 0 1 9.5232 29.32736l-100.79744 98.24768 23.79264 138.73152a17.2032 17.2032 0 0 1-16.93696 20.096zM512 533.28384c2.74944 0 5.49888 0.65536 8.00256 1.97632l101.75488 53.49376-19.4304-113.3056a17.1776 17.1776 0 0 1 4.9408-15.21664l82.31936-80.24576-113.76128-16.53248a17.18784 17.18784 0 0 1-12.94336-9.40544L512 250.96192 461.12256 354.048a17.19808 17.19808 0 0 1-12.94336 9.40544l-113.7664 16.53248 82.31936 80.24576a17.1776 17.1776 0 0 1 4.9408 15.21664l-19.4304 113.3056 101.76-53.49376a17.1008 17.1008 0 0 1 7.99744-1.97632zM529.60768 699.19232a17.19296 17.19296 0 0 1-17.19296 17.18784h-123.0848a17.18784 17.18784 0 0 1 0-34.37568h123.0848a17.18272 17.18272 0 0 1 17.19296 17.18784zM651.8528 699.19232a17.19296 17.19296 0 0 1-17.19296 17.18784h-45.83936a17.18784 17.18784 0 0 1 0-34.37568h45.83936a17.1776 17.1776 0 0 1 17.19296 17.18784z" p-id="2479"></path></svg>