<?xml version="1.0" standalone="no"?><!DOCTYPE svg PUBLIC "-//W3C//DTD SVG 1.1//EN" "http://www.w3.org/Graphics/SVG/1.1/DTD/svg11.dtd"><svg t="1556937513435" class="icon" style="" viewBox="0 0 1024 1024" version="1.1" xmlns="http://www.w3.org/2000/svg" p-id="2113" xmlns:xlink="http://www.w3.org/1999/xlink" width="200" height="200"><defs><style type="text/css"></style></defs><path d="M512 1018.88c-94.72 0-186.88-25.6-266.24-74.24-10.24-2.56-64 12.8-112.64 33.28l-43.52 17.92 7.68-46.08c10.24-56.32 15.36-115.2 10.24-128-69.12-87.04-104.96-194.56-104.96-307.2C5.12 232.96 230.4 5.12 512 5.12c279.04 0 506.88 227.84 506.88 506.88S791.04 1018.88 512 1018.88z m-268.8-125.44c12.8 0 23.04 2.56 30.72 7.68 71.68 43.52 153.6 66.56 238.08 66.56 250.88 0 455.68-204.8 455.68-455.68S762.88 56.32 512 56.32 56.32 261.12 56.32 512c0 102.4 33.28 197.12 94.72 279.04 12.8 17.92 15.36 58.88 5.12 122.88 30.72-12.8 61.44-20.48 87.04-20.48z" fill="#666666" p-id="2114"></path><path d="M273.92 519.68m-66.56 0a66.56 66.56 0 1 0 133.12 0 66.56 66.56 0 1 0-133.12 0Z" fill="#666666" p-id="2115"></path><path d="M514.56 519.68m-66.56 0a66.56 66.56 0 1 0 133.12 0 66.56 66.56 0 1 0-133.12 0Z" fill="#666666" p-id="2116"></path><path d="M752.64 519.68m-66.56 0a66.56 66.56 0 1 0 133.12 0 66.56 66.56 0 1 0-133.12 0Z" fill="#666666" p-id="2117"></path></svg>