<?xml version="1.0" standalone="no"?><!DOCTYPE svg PUBLIC "-//W3C//DTD SVG 1.1//EN" "http://www.w3.org/Graphics/SVG/1.1/DTD/svg11.dtd"><svg t="1558940157434" class="icon" style="" viewBox="0 0 1024 1024" version="1.1" xmlns="http://www.w3.org/2000/svg" p-id="2053" xmlns:xlink="http://www.w3.org/1999/xlink" width="48" height="48"><defs><style type="text/css"></style></defs><path d="M864.711111 1024H159.288889c-38.684444 0-68.266667-29.582222-68.266667-68.266667V204.8c0-38.684444 29.582222-68.266667 68.266667-68.266667h163.84v45.511111H159.288889c-13.653333 0-22.755556 9.102222-22.755556 22.755556v750.933333c0 13.653333 9.102222 22.755556 22.755556 22.755556h705.422222c13.653333 0 22.755556-9.102222 22.755556-22.755556V204.8c0-13.653333-9.102222-22.755556-22.755556-22.755556h-154.737778V136.533333H864.711111c38.684444 0 68.266667 29.582222 68.266667 68.266667v750.933333c0 38.684444-29.582222 68.266667-68.266667 68.266667z" p-id="2054" fill="#ffffff"></path><path d="M659.911111 273.066667H364.088889c-38.684444 0-68.266667-29.582222-68.266667-68.266667V136.533333c0-38.684444 29.582222-68.266667 68.266667-68.266666h22.755555c0-38.684444 29.582222-68.266667 68.266667-68.266667h113.777778c38.684444 0 68.266667 29.582222 68.266667 68.266667h22.755555c38.684444 0 68.266667 29.582222 68.266667 68.266666v68.266667c0 38.684444-29.582222 68.266667-68.266667 68.266667zM364.088889 113.777778c-13.653333 0-22.755556 9.102222-22.755556 22.755555v68.266667c0 13.653333 9.102222 22.755556 22.755556 22.755556h295.822222c13.653333 0 22.755556-9.102222 22.755556-22.755556V136.533333c0-13.653333-9.102222-22.755556-22.755556-22.755555h-68.266667V68.266667c0-13.653333-9.102222-22.755556-22.755555-22.755556h-113.777778c-13.653333 0-22.755556 9.102222-22.755555 22.755556v45.511111h-68.266667zM341.333333 455.111111h364.088889c13.653333 0 22.755556 9.102222 22.755556 22.755556s-9.102222 22.755556-22.755556 22.755555H341.333333c-13.653333 0-22.755556-9.102222-22.755555-22.755555s9.102222-22.755556 22.755555-22.755556z m0 159.288889h204.8c13.653333 0 22.755556 9.102222 22.755556 22.755556s-9.102222 22.755556-22.755556 22.755555h-204.8c-13.653333 0-22.755556-9.102222-22.755555-22.755555s9.102222-22.755556 22.755555-22.755556z" p-id="2055" fill="#ffffff"></path></svg>