<?xml version="1.0" standalone="no"?><!DOCTYPE svg PUBLIC "-//W3C//DTD SVG 1.1//EN" "http://www.w3.org/Graphics/SVG/1.1/DTD/svg11.dtd"><svg t="1562644298179" class="icon" viewBox="0 0 1024 1024" version="1.1" xmlns="http://www.w3.org/2000/svg" p-id="1470" xmlns:xlink="http://www.w3.org/1999/xlink" width="200" height="200"><defs><style type="text/css"></style></defs><path d="M848.5 307.6H648.5c-28.7 0-52-23.3-52-52V74h46v181.6c0 3.3 2.7 6 6 6h200v46z" fill="#ffffff" p-id="1471"></path><path d="M811.5 958H222.5c-29.2 0-53-23.8-53-53V111c0-29.2 23.8-53 53-53h41c12.7 0 23 10.3 23 23s-10.3 23-23 23h-41c-3.9 0-7 3.1-7 7v794c0 3.9 3.1 7 7 7h589c3.9 0 7-3.1 7-7V280.5L616.8 104H433.5c-12.7 0-23-10.3-23-23s10.3-23 23-23h192c5.6 0 11 2 15.1 5.7l216 189c5 4.4 7.9 10.7 7.9 17.3v635c0 29.2-23.8 53-53 53zM372.4 104h-39c-12.7 0-23-10.3-23-23s10.3-23 23-23h39c12.7 0 23 10.3 23 23s-10.3 23-23 23z" fill="#ffffff" p-id="1472"></path><path d="M726.9 797.6c-6 0-11.9-2.3-16.4-6.9l-114.9-117c-8.7-8.8-8.8-23-0.3-32 25.3-26.6 39.2-61.5 39.2-98.2 0-78.6-63.9-142.5-142.5-142.5S349.5 464.9 349.5 543.5 413.4 686 492 686c27.4 0 42.6-0.4 60.4-10 11.2-6 25.1-1.8 31.1 9.4 6 11.2 1.8 25.1-9.4 31.1-28.8 15.5-53.5 15.5-82.1 15.5C388.1 732 303.5 647.4 303.5 543.5S388.1 355 492 355 680.5 439.6 680.5 543.5c0 41.1-13.2 80.4-37.5 112.8l100.2 102.1c8.9 9.1 8.8 23.6-0.3 32.5-4.4 4.5-10.2 6.7-16 6.7z" fill="#ffffff" p-id="1473"></path><path d="M494.5 606.5c-7.2 0-13.5-5.2-14.8-12.5-2.8-16.4-0.7-29.7 6.3-39.5 3-4.3 7.7-8.1 13.5-13C510.5 532.4 525.5 520 525.5 507.1 525.5 487.7 509.6 472 490.1 472c-11.6 0-31 10.3-36.2 27.1C451.4 507 443 511.4 435.1 509c-7.9-2.5-12.3-10.9-9.8-18.8C434.5 460.4 466.1 442 490.1 442c36 0 65.4 29.2 65.4 65.1 0 27.1-23.1 46.2-36.9 57.6-3 2.5-7.2 6-8.2 7.3-2 2.9-2.5 9.1-1.1 17 1.4 8.2-4.1 15.9-12.3 17.3-0.8 0.1-1.7 0.2-2.5 0.2z" fill="#ffffff" p-id="1474"></path><path d="M493.5 635m-20 0a20 20 0 1 0 40 0 20 20 0 1 0-40 0Z" fill="#ffffff" p-id="1475"></path></svg>