<?xml version="1.0" standalone="no"?><!DOCTYPE svg PUBLIC "-//W3C//DTD SVG 1.1//EN" "http://www.w3.org/Graphics/SVG/1.1/DTD/svg11.dtd"><svg t="1560914809614" class="icon" style="" viewBox="0 0 1024 1024" version="1.1" xmlns="http://www.w3.org/2000/svg" p-id="1516" xmlns:xlink="http://www.w3.org/1999/xlink" width="48" height="48"><defs><style type="text/css"></style></defs><path d="M512 938.7C276.7 938.7 85.3 747.2 85.3 512S276.7 85.3 512 85.3 938.7 276.7 938.7 512 747.2 938.7 512 938.7z m0-768c-188.2 0-341.3 153.1-341.3 341.3S323.8 853.3 512 853.3 853.3 700.2 853.3 512 700.2 170.7 512 170.7z" p-id="1517" fill="#ffffff"></path><path d="M298 694.2V468.1h-40v-50.7h132.5v228.3h22l-15.3 48.6H298z m-8.3-290.1l-22-89.5h90.1l11.8 47.1h25.1l-8.7 42.4h-96.3z m371.5 290.1l-62.4-281.9H414.6v-45.6h174.5l-11.8-53.2h90.6l11.8 53.2h14.8l-10.8-41.9h63l11.8 41.9h6.7v45.6H690l54.8 242.5h20.5l-8.7 39.4h-95.4z m-188.7-50.6V494.2h-48.1v-46h170.9v46h-37.8v149.4h56.8v47.6H425.9v-47.6h46.6z" p-id="1518" fill="#ffffff"></path></svg>